PathFileType	4	(X/Y/Z)	Patient5_TMGait_0pt45_1_right_09.trc.trc
DataRate	CameraRate	NumFrames	NumMarkers	Units	OrigDataRate	OrigDataStartFrame	OrigNumFrames
58.091286307054	58.091286307054	4	32	mm	58.091286307054	18	       141
Frame#	Time	R.ASIS			L.ASIS			Chest			R.Shoulder			Neck			L.Shoulder			L.Elbow			L.Wrist			R.Elbow			R.Wrist			L.Thigh.Superior			L.Thigh.Lateral			L.Thigh.Inferior			L.Patella			L.Shank.Superior			L.Shank.Lateral			L.Shank.Inferior			L.Heel			L.Midfoot.Lateral			L.Midfoot.Superior			L.Toe			R.Thigh.Superior			R.Thigh.Lateral			R.Thigh.Inferior			R.Patella			R.Shank.Superior			R.Shank.Lateral			R.Shank.Inferior			R.Heel			R.Midfoot.Lateral			R.Midfoot.Superior			R.Toe			
		X1	Y1	Z1	X2	Y2	Z2	X3	Y3	Z3	X4	Y4	Z4	X5	Y5	Z5	X6	Y6	Z6	X7	Y7	Z7	X8	Y8	Z8	X9	Y9	Z9	X10	Y10	Z10	X11	Y11	Z11	X12	Y12	Z12	X13	Y13	Z13	X14	Y14	Z14	X15	Y15	Z15	X16	Y16	Z16	X17	Y17	Z17	X18	Y18	Z18	X19	Y19	Z19	X20	Y20	Z20	X21	Y21	Z21	X22	Y22	Z22	X23	Y23	Z23	X24	Y24	Z24	X25	Y25	Z25	X26	Y26	Z26	X27	Y27	Z27	X28	Y28	Z28	X29	Y29	Z29	X30	Y30	Z30	X31	Y31	Z31	X32	Y32	Z32	

18	14.882642857143	1020.828240149715	998.785627913292	553.791233403471	1012.945123913118	961.640122530980	314.630388837370	1068.212088806544	1443.939103351247	430.724979676644	957.343123122089	1510.367079873522	589.767851115090	945.454431098883	1564.865914924227	404.046924670447	1017.299886639005	1503.001690412990	229.700116069344	976.284209238035	1178.388603230733	103.557450540077	1106.361966200862	920.508139806669	124.946014491661	861.328704893567	1199.057397628800	737.814022402646	1078.618629650540	1013.690422441473	683.632397570828	998.671160865296	733.502925117775	321.042325471953	908.347282369490	675.417174840562	285.205155046179	967.428433600606	606.031271089728	345.572066299406	937.275828932666	492.425645953484	352.657727272854	876.504395163065	400.287767950536	378.770767737366	793.066174732386	343.088176882115	307.174616788227	826.581043983072	283.737867807381	392.942503253831	660.314007484715	61.375185570652	401.133595807047	750.189727950741	32.533154050272	345.525937445815	847.637519032524	90.055186280770	390.923599639902	950.998775216692	44.124590898044	402.876560828693	1089.994013241662	790.222002156527	590.823502167893	1038.798175664358	699.264760161994	657.004291892182	1125.893450978214	665.534091712145	580.804359733156	1158.779989108390	572.630886710100	620.843569434963	1127.254809452641	459.766853496161	591.860056510226	1063.154982123417	388.297075661157	676.761506015111	1122.275287154014	319.740319073379	597.497163567331	1022.377957314800	85.400190852717	578.761981553594	1106.740470801884	56.014394401728	645.973964218410	1204.559368425560	134.018145678618	630.091831152753	1311.525018237401	101.018500640139	621.643109560956	
19	14.899857142857	1021.782919474448	996.028710688492	556.175084141275	1012.538671126657	960.666237251548	316.502149710938	1067.959382487162	1442.633604484726	433.742815833198	958.164811502123	1508.316168213170	593.911887622390	944.569307151122	1563.301103714111	408.432134500694	1014.934433381242	1502.107986624228	233.111886982605	969.595894054963	1178.809191400220	105.275545431810	1095.827396433126	918.735061807039	124.105546586283	863.851977732019	1196.215856658202	741.352686127467	1081.414540921732	1011.814950577911	684.967560167319	996.323375749933	732.490710185557	321.759788012338	905.341669273047	675.179830655422	285.975532799975	964.220937021150	605.218613706515	345.978279609544	932.710627736189	491.606500161680	352.637984339373	871.223700901061	399.959679038391	378.708669072396	786.829484536677	343.781929739906	307.422348456911	820.436100829338	283.704773815732	392.590315421008	652.653014737591	62.034024617131	400.796722097965	742.444034739186	32.723963817783	345.337176674962	839.993895196874	90.138695914376	390.559419996925	943.116036426565	44.164552680119	402.787735011257	1088.220833010100	784.636474480128	591.784689160535	1034.646934957274	693.725843116864	657.066987730584	1121.767846234423	659.376290222392	580.918663638984	1152.671336478188	566.051948440275	620.248439000866	1121.383437755416	454.094996657653	590.242354413865	1056.557937690576	382.143935564500	674.421169065878	1116.377782738531	313.929748694390	595.239316010972	1016.378931363674	80.274364392134	574.482809081049	1100.202980230186	49.702671648860	641.818150936485	1198.671041343248	127.057921692091	627.051876482388	1305.388056076728	93.376545829278	618.819532611440	
20	14.917071428571	1023.078930418599	993.047686119150	558.740551622347	1012.345042099821	959.517507928181	318.561245594036	1067.986521790894	1441.171318251540	436.991286625008	959.228623892094	1506.087340163627	598.254777538923	943.963948750366	1561.568772867277	413.057676666923	1012.893831625881	1501.078549722890	236.796028326754	963.171034245376	1179.215609748419	107.215107008516	1085.397126324389	916.952457667115	123.598310879230	866.544724103562	1193.123599330139	744.917364731660	1084.442924685596	1009.794712168591	686.347584102684	994.277918045423	731.370949488273	322.493308072694	902.607650389007	674.855382277112	286.877567175903	961.356940048875	604.295137611771	346.360625379544	928.488413109762	490.608868873934	352.601387262055	866.230750200056	399.491338207106	378.656722240207	780.808821996360	344.451747536137	307.702001747485	814.451419343039	283.604247870642	392.234016138471	644.987879183578	62.701467346299	400.426007627454	734.692157979606	32.926289941519	345.120519287294	832.325081085894	90.221869136002	390.186557067375	935.213212153144	44.205401995313	402.693654565232	1086.629650537014	778.782755933200	592.987971222108	1030.330891558907	688.008019571542	657.095861949259	1117.634342799323	652.981094847321	581.190396237358	1146.352152611206	559.154874620543	619.692006583297	1115.189146369544	448.235271952419	588.472503393687	1049.459155142335	375.864322715279	671.824424108513	1109.942246276398	307.944373019558	592.713345206284	1009.440018417705	75.217471504202	569.855833334336	1092.601608338141	43.543219514998	637.456068336679	1191.944227873425	119.812353447911	623.481824419387	1298.295393509938	85.089796566678	615.651593185774	
21	14.934285714286	1024.722279725585	989.909647219927	561.457604594688	1012.419762926272	958.197980609666	320.820923615334	1068.294514643204	1439.567016023397	440.471039602880	960.552468990986	1503.683285113389	602.811575362317	943.638325545830	1559.685250422898	417.926874097792	1011.135708729304	1499.910215636058	240.752335526982	957.001039708968	1179.583647101879	109.416047270178	1075.129430795557	915.169306059842	123.444157845685	869.454655252098	1189.791032947664	748.561051724645	1087.692239870079	1007.588925806823	687.778117363759	992.613883905725	730.135064205047	323.327171139432	900.227829870467	674.416416899103	287.957472685084	958.888276981646	603.248080835421	346.804513239819	924.666802258379	489.373042712956	352.630028387702	861.560039234588	398.852169403015	378.680188321375	775.061698319424	345.071460786305	308.048458910836	808.637950256132	283.448038925957	391.975180232874	637.311132431549	63.379427590130	400.048369519154	726.931732246972	33.159298629851	344.888518311166	824.625908942673	90.307685924197	389.828985817091	927.290084359917	44.251481163872	402.593876403831	1085.230102798675	772.787903663519	594.519796883735	1025.996216387563	682.237928488643	657.102083674458	1113.559132426227	646.485235508103	581.556637660102	1140.001264664532	552.092332335059	619.089425264638	1108.824259781519	442.305761272310	586.526532947097	1042.125871872684	369.591036284847	669.008331362782	1103.153461108392	301.923199203461	589.904895185780	1001.779079228318	70.294057810337	565.022577151525	1084.197915899897	37.846529484925	633.075638114035	1184.573686759518	112.612593658042	619.324105102578	1290.468554425296	76.546892213130	612.142395342744	
